<svg width="241" height="38" viewBox="0 0 241 38" fill="none" xmlns="http://www.w3.org/2000/svg">
<path fill-rule="evenodd" clip-rule="evenodd" d="M28.9139 0C27.1248 0 25.6765 1.43881 25.6765 3.21538C25.6765 4.98962 27.1262 6.43077 28.9128 6.43077H33.6201C34.7516 6.43077 35.6765 7.34932 35.6765 8.47692C35.6765 9.60494 34.7539 10.5231 33.6194 10.5231H7.7341C5.94404 10.5231 4.5 11.9615 4.5 13.7385C4.5 15.5132 5.95202 16.9538 7.74039 16.9538H27.1525C28.2818 16.9538 29.2059 17.8723 29.2059 19C29.2059 20.1276 28.2813 21.0462 27.1434 21.0462H23.0244C21.2398 21.0462 19.7941 22.4864 19.7941 24.2615C19.7941 26.0358 21.2441 27.4769 23.0309 27.4769H31.8494C32.9921 27.4769 33.9118 28.3911 33.9118 29.5231C33.9118 30.6507 32.9874 31.5692 31.8499 31.5692H14.7981C13.0055 31.5692 11.5588 33.0069 11.5588 34.7846C11.5588 36.5582 13.0054 38 14.7898 38H39.7998C42.3944 38 44.5 35.9043 44.5 33.322V4.67802C44.5 2.09128 42.3924 3.91737e-06 39.7902 3.91737e-06L28.9139 0ZM11.2686 0C9.47988 0 8.02941 1.43899 8.02941 3.21538C8.02941 4.98998 9.48074 6.43077 11.2686 6.43077H18.9079C20.6966 6.43077 22.1471 4.99178 22.1471 3.21538C22.1471 1.44079 20.6957 0 18.9079 0H11.2686ZM13.0313 27.4769C14.8175 27.4769 16.2647 26.0371 16.2647 24.2615C16.2647 22.4877 14.8168 21.0462 13.0313 21.0462H8.90981C7.12371 21.0462 5.67647 22.4859 5.67647 24.2615C5.67647 26.0354 7.12442 27.4769 8.90981 27.4769H13.0313Z" fill="#5AC229"/>
<path d="M65.8029 31.0001C64.1917 31.0001 62.8013 30.7733 61.6315 30.3196C60.4617 29.8659 59.4961 29.2353 58.7347 28.4275C57.9732 27.6198 57.4104 26.6571 57.0463 25.5395C56.6821 24.422 56.5 23.1882 56.5 21.8383V7.53125H61.6646V21.4068C61.6646 22.3362 61.7694 23.1274 61.9791 23.7802C62.1888 24.433 62.4757 24.9642 62.8399 25.3736C63.2041 25.783 63.6455 26.0762 64.1641 26.2532C64.6828 26.4303 65.2511 26.5188 65.8691 26.5188C67.1272 26.5188 68.148 26.1315 68.9315 25.357C69.715 24.5824 70.1068 23.2657 70.1068 21.4068V7.53125H75.2714V21.8383C75.2714 23.1882 75.0838 24.4275 74.7086 25.5561C74.3334 26.6848 73.7595 27.653 72.987 28.4607C72.2145 29.2684 71.2324 29.8936 70.0406 30.3362C68.8487 30.7788 67.4362 31.0001 65.8029 31.0001Z" fill="#212121"/>
<path d="M80.2375 30.5354V7.53125H95.599V11.8798H85.4022V16.6931H94.4733V21.0416H85.4022V30.5354H80.2375Z" fill="#212121"/>
<path d="M111.026 7.53125C111.931 9.45656 112.819 11.4649 113.691 13.5561C114.563 15.6474 115.396 17.7055 116.191 19.7304C116.985 21.7553 117.719 23.6972 118.392 25.5561C119.066 27.4151 119.656 29.0748 120.164 30.5354H114.469C114.028 29.2076 113.548 27.7747 113.029 26.2366C112.51 24.6986 111.981 23.1661 111.44 21.6391C110.899 20.1121 110.37 18.6516 109.851 17.2574C109.332 15.8632 108.863 14.6571 108.444 13.6391C108.002 14.6571 107.522 15.8632 107.004 17.2574C106.485 18.6516 105.961 20.1121 105.431 21.6391C104.902 23.1661 104.377 24.6986 103.859 26.2366C103.34 27.7747 102.86 29.2076 102.419 30.5354H96.9229C97.4084 29.0748 97.9878 27.415 98.6609 25.5561C99.3341 23.6972 100.068 21.7498 100.863 19.7138C101.657 17.6778 102.496 15.6198 103.379 13.5395C104.261 11.4593 105.155 9.45656 106.06 7.53125H111.026Z" fill="#212121"/>
<path d="M130.791 30.8341C129.533 30.8341 128.28 30.7953 127.033 30.7179C125.786 30.6404 124.49 30.4579 123.143 30.1702V7.86313C124.203 7.66397 125.361 7.51458 126.619 7.41499C127.878 7.31541 129.047 7.26562 130.129 7.26562C131.585 7.26562 132.926 7.37074 134.151 7.58098C135.376 7.79121 136.43 8.15081 137.313 8.65981C138.196 9.1688 138.885 9.83824 139.382 10.6681C139.879 11.498 140.127 12.5215 140.127 13.7386C140.127 15.5754 139.244 17.0249 137.478 18.0872C138.935 18.6404 139.928 19.3929 140.458 20.3444C140.988 21.296 141.253 22.3693 141.253 23.5644C141.253 25.9765 140.375 27.7912 138.621 29.0083C136.866 30.2255 134.256 30.8341 130.791 30.8341H130.791ZM128.175 20.5104V26.4523C128.551 26.4966 128.959 26.5298 129.4 26.5519C129.842 26.574 130.327 26.5851 130.857 26.5851C132.402 26.5851 133.649 26.3638 134.598 25.9212C135.547 25.4786 136.022 24.6598 136.022 23.4648C136.022 22.4025 135.624 21.6446 134.83 21.1909C134.035 20.7373 132.899 20.5104 131.42 20.5104H128.175ZM128.175 16.5602H130.692C132.281 16.5602 133.417 16.3555 134.102 15.9461C134.786 15.5367 135.128 14.8783 135.128 13.971C135.128 13.0416 134.775 12.3887 134.068 12.0125C133.362 11.6363 132.325 11.4482 130.956 11.4482C130.515 11.4482 130.04 11.4537 129.533 11.4648C129.025 11.4758 128.573 11.5035 128.175 11.5478L128.175 16.5602Z" fill="#212121"/>
<path d="M155.853 31C152.123 31 149.281 29.9599 147.328 27.8797C145.374 25.7994 144.398 22.8451 144.398 19.0166C144.398 17.1134 144.696 15.4149 145.292 13.9212C145.888 12.4274 146.704 11.166 147.741 10.1369C148.779 9.10789 150.015 8.32781 151.449 7.79668C152.884 7.26556 154.44 7 156.117 7C157.089 7 157.971 7.07193 158.766 7.21578C159.56 7.35962 160.256 7.52559 160.852 7.7137C161.448 7.9018 161.944 8.09544 162.341 8.29461C162.739 8.49378 163.026 8.64869 163.202 8.75934L161.712 12.9419C161.006 12.5657 160.184 12.2448 159.246 11.9793C158.308 11.7137 157.243 11.5809 156.051 11.5809C155.257 11.5809 154.479 11.7137 153.717 11.9793C152.956 12.2448 152.283 12.6708 151.698 13.2573C151.113 13.8437 150.644 14.6017 150.291 15.5311C149.938 16.4606 149.761 17.5892 149.761 18.917C149.761 19.9793 149.877 20.9696 150.109 21.888C150.34 22.8064 150.716 23.5975 151.234 24.2614C151.753 24.9253 152.432 25.4509 153.27 25.8382C154.109 26.2254 155.124 26.4191 156.316 26.4191C157.066 26.4191 157.74 26.3748 158.336 26.2863C158.931 26.1978 159.461 26.0927 159.925 25.971C160.388 25.8492 160.796 25.7109 161.15 25.556C161.503 25.4011 161.823 25.2573 162.11 25.1245L163.533 29.2739C162.805 29.7165 161.779 30.1148 160.454 30.4689C159.13 30.823 157.596 31 155.853 31V31Z" fill="#212121"/>
<path d="M182.238 9.98767C182.503 10.895 182.796 11.9185 183.116 13.0582C183.436 14.1979 183.778 15.3763 184.142 16.5935C184.506 17.8106 184.876 19.0278 185.251 20.2449C185.626 21.4621 185.99 22.5907 186.344 23.6308C186.63 22.5022 186.923 21.274 187.221 19.9462C187.519 18.6184 187.8 17.2463 188.065 15.83C188.33 14.4137 188.589 13.0029 188.843 11.5976C189.097 10.1924 189.334 8.83692 189.555 7.53125H194.918C194.146 11.3819 193.257 15.2878 192.253 19.2491C191.249 23.2103 190.162 26.9724 188.992 30.5354H184.258C183.485 28.4109 182.735 26.1813 182.007 23.8466C181.278 21.5119 180.561 19.1716 179.855 16.8258C179.148 19.1716 178.442 21.5119 177.736 23.8466C177.03 26.1813 176.29 28.4109 175.518 30.5354H170.783C169.614 26.9724 168.527 23.2103 167.522 19.2491C166.518 15.2878 165.63 11.3819 164.857 7.53125H170.452C170.673 8.83692 170.916 10.1924 171.181 11.5976C171.446 13.0029 171.722 14.4137 172.008 15.83C172.295 17.2463 172.588 18.6184 172.886 19.9462C173.184 21.274 173.487 22.5022 173.796 23.6308C174.193 22.5464 174.58 21.3957 174.955 20.1785C175.33 18.9614 175.694 17.7442 176.047 16.5271C176.401 15.3099 176.726 14.1371 177.024 13.0084C177.322 11.8798 177.592 10.8729 177.835 9.98767H182.238Z" fill="#212121"/>
<path d="M198.229 7.53125H203.393V30.5354H198.229V7.53125Z" fill="#212121"/>
<path d="M222.231 30.5354C221.767 29.783 221.221 28.9697 220.592 28.0956C219.963 27.2214 219.279 26.3473 218.54 25.4731C217.8 24.599 217.033 23.7581 216.239 22.9503C215.444 22.1426 214.65 21.4289 213.855 20.8092V30.5354H208.69V7.53125H213.855V16.2283C215.201 14.812 216.553 13.3348 217.911 11.7968C219.268 10.2588 220.532 8.83692 221.701 7.53125H227.826C226.259 9.39017 224.686 11.1827 223.108 12.9088C221.53 14.635 219.869 16.3722 218.126 18.1204C219.958 19.6474 221.729 21.4621 223.439 23.5644C225.15 25.6668 226.789 27.9904 228.356 30.5354H222.231Z" fill="#212121"/>
<path d="M231.335 7.53125H236.5V30.5354H231.335V7.53125Z" fill="#212121"/>
</svg>
