<svg width="194" height="32" viewBox="0 0 194 32" fill="none" xmlns="http://www.w3.org/2000/svg">
<path fill-rule="evenodd" clip-rule="evenodd" d="M21.5312 0C20.0998 0 18.9412 1.21163 18.9412 2.70769C18.9412 4.20178 20.1009 5.41539 21.5303 5.41539H25.296C26.2013 5.41539 26.9412 6.1889 26.9412 7.13846C26.9412 8.08837 26.2031 8.86154 25.2955 8.86154H4.58728C3.15523 8.86154 2 10.0729 2 11.5692C2 13.0638 3.16161 14.2769 4.59231 14.2769H20.122C21.0255 14.2769 21.7647 15.0504 21.7647 16C21.7647 16.9496 21.025 17.7231 20.1147 17.7231H16.8195C15.3918 17.7231 14.2353 18.9359 14.2353 20.4308C14.2353 21.9249 15.3953 23.1385 16.8248 23.1385H23.8795C24.7936 23.1385 25.5294 23.9083 25.5294 24.8615C25.5294 25.8112 24.7899 26.5846 23.8799 26.5846H10.2385C8.80438 26.5846 7.64706 27.7953 7.64706 29.2923C7.64706 30.7858 8.80433 32 10.2318 32H30.2398C32.3155 32 34 30.2352 34 28.0606V3.93938C34 1.76108 32.3139 3.29884e-06 30.2321 3.29884e-06L21.5312 0ZM7.41487 0C5.9839 0 4.82353 1.21178 4.82353 2.70769C4.82353 4.20209 5.98459 5.41539 7.41487 5.41539H13.5263C14.9573 5.41539 16.1176 4.2036 16.1176 2.70769C16.1176 1.2133 14.9566 0 13.5263 0H7.41487ZM8.82508 23.1385C10.254 23.1385 11.4118 21.926 11.4118 20.4308C11.4118 18.937 10.2534 17.7231 8.82508 17.7231H5.52784C4.09896 17.7231 2.94117 18.9355 2.94117 20.4308C2.94117 21.9245 4.09954 23.1385 5.52784 23.1385H8.82508Z" fill="#4B4E5C"/>
<path d="M56.16 7.2V10.128H51.024V24H48.096V10.128H42.96V7.2H56.16ZM65.7771 12H68.7051V24H65.7771L65.6451 22.512C65.3171 23.048 64.8811 23.484 64.3371 23.82C63.8011 24.148 63.1651 24.312 62.4291 24.312C61.5411 24.312 60.7091 24.144 59.9331 23.808C59.1571 23.472 58.4731 23.008 57.8811 22.416C57.2971 21.824 56.8371 21.14 56.5011 20.364C56.1731 19.588 56.0091 18.756 56.0091 17.868C56.0091 17.012 56.1651 16.208 56.4771 15.456C56.7971 14.704 57.2411 14.044 57.8091 13.476C58.3771 12.908 59.0331 12.464 59.7771 12.144C60.5211 11.824 61.3211 11.664 62.1771 11.664C62.9691 11.664 63.6771 11.84 64.3011 12.192C64.9331 12.544 65.4691 12.992 65.9091 13.536L65.7771 12ZM62.3571 21.492C62.9811 21.492 63.5331 21.336 64.0131 21.024C64.4931 20.712 64.8691 20.292 65.1411 19.764C65.4131 19.228 65.5491 18.64 65.5491 18C65.5491 17.352 65.4131 16.764 65.1411 16.236C64.8691 15.7 64.4891 15.276 64.0011 14.964C63.5211 14.652 62.9731 14.496 62.3571 14.496C61.7411 14.496 61.1771 14.656 60.6651 14.976C60.1611 15.288 59.7571 15.708 59.4531 16.236C59.1571 16.764 59.0091 17.352 59.0091 18C59.0091 18.648 59.1611 19.236 59.4651 19.764C59.7691 20.292 60.1731 20.712 60.6771 21.024C61.1891 21.336 61.7491 21.492 62.3571 21.492ZM71.0963 24V12H74.0243V13.068C74.4323 12.636 74.9203 12.296 75.4883 12.048C76.0563 11.792 76.6683 11.664 77.3243 11.664C78.1563 11.664 78.9203 11.86 79.6163 12.252C80.3203 12.644 80.8803 13.168 81.2963 13.824C81.7203 13.168 82.2803 12.644 82.9763 12.252C83.6723 11.86 84.4363 11.664 85.2683 11.664C86.1483 11.664 86.9443 11.88 87.6563 12.312C88.3763 12.736 88.9483 13.308 89.3723 14.028C89.8043 14.74 90.0203 15.536 90.0203 16.416V24H87.0923V17.196C87.0923 16.732 86.9763 16.308 86.7443 15.924C86.5203 15.532 86.2163 15.22 85.8323 14.988C85.4563 14.748 85.0323 14.628 84.5603 14.628C84.0883 14.628 83.6603 14.744 83.2763 14.976C82.9003 15.2 82.5963 15.504 82.3643 15.888C82.1323 16.272 82.0163 16.708 82.0163 17.196V24H79.0883V17.196C79.0883 16.708 78.9763 16.272 78.7523 15.888C78.5283 15.504 78.2243 15.2 77.8403 14.976C77.4563 14.744 77.0283 14.628 76.5563 14.628C76.0923 14.628 75.6683 14.748 75.2843 14.988C74.9003 15.22 74.5923 15.532 74.3603 15.924C74.1363 16.308 74.0243 16.732 74.0243 17.196V24H71.0963ZM101.238 12H104.166V24H101.238L101.106 22.512C100.778 23.048 100.342 23.484 99.798 23.82C99.262 24.148 98.626 24.312 97.89 24.312C97.002 24.312 96.17 24.144 95.394 23.808C94.618 23.472 93.934 23.008 93.342 22.416C92.758 21.824 92.298 21.14 91.962 20.364C91.634 19.588 91.47 18.756 91.47 17.868C91.47 17.012 91.626 16.208 91.938 15.456C92.258 14.704 92.702 14.044 93.27 13.476C93.838 12.908 94.494 12.464 95.238 12.144C95.982 11.824 96.782 11.664 97.638 11.664C98.43 11.664 99.138 11.84 99.762 12.192C100.394 12.544 100.93 12.992 101.37 13.536L101.238 12ZM97.818 21.492C98.442 21.492 98.994 21.336 99.474 21.024C99.954 20.712 100.33 20.292 100.602 19.764C100.874 19.228 101.01 18.64 101.01 18C101.01 17.352 100.874 16.764 100.602 16.236C100.33 15.7 99.95 15.276 99.462 14.964C98.982 14.652 98.434 14.496 97.818 14.496C97.202 14.496 96.638 14.656 96.126 14.976C95.622 15.288 95.218 15.708 94.914 16.236C94.618 16.764 94.47 17.352 94.47 18C94.47 18.648 94.622 19.236 94.926 19.764C95.23 20.292 95.634 20.712 96.138 21.024C96.65 21.336 97.21 21.492 97.818 21.492ZM117.549 16.416V24H114.621V17.184C114.621 16.712 114.505 16.284 114.273 15.9C114.041 15.508 113.729 15.2 113.337 14.976C112.953 14.744 112.525 14.628 112.053 14.628C111.581 14.628 111.149 14.744 110.757 14.976C110.373 15.2 110.065 15.508 109.833 15.9C109.609 16.284 109.497 16.712 109.497 17.184V24H106.569L106.557 12H109.485L109.497 13.068C109.905 12.636 110.393 12.296 110.961 12.048C111.529 11.792 112.141 11.664 112.797 11.664C113.669 11.664 114.465 11.88 115.185 12.312C115.905 12.736 116.477 13.308 116.901 14.028C117.333 14.74 117.549 15.536 117.549 16.416ZM128.778 6H131.706V24H128.778V22.5C128.394 23.036 127.91 23.472 127.326 23.808C126.742 24.144 126.066 24.312 125.298 24.312C124.426 24.312 123.61 24.148 122.85 23.82C122.09 23.492 121.418 23.04 120.834 22.464C120.258 21.88 119.806 21.208 119.478 20.448C119.15 19.688 118.986 18.872 118.986 18C118.986 17.128 119.15 16.312 119.478 15.552C119.806 14.792 120.258 14.124 120.834 13.548C121.418 12.964 122.09 12.508 122.85 12.18C123.61 11.852 124.426 11.688 125.298 11.688C126.066 11.688 126.742 11.856 127.326 12.192C127.91 12.52 128.394 12.956 128.778 13.5V6ZM125.334 21.492C125.958 21.492 126.51 21.336 126.99 21.024C127.47 20.712 127.846 20.292 128.118 19.764C128.39 19.228 128.526 18.64 128.526 18C128.526 17.352 128.39 16.764 128.118 16.236C127.846 15.7 127.466 15.276 126.978 14.964C126.498 14.652 125.95 14.496 125.334 14.496C124.718 14.496 124.154 14.656 123.642 14.976C123.138 15.288 122.734 15.708 122.43 16.236C122.134 16.764 121.986 17.352 121.986 18C121.986 18.648 122.138 19.236 122.442 19.764C122.746 20.292 123.15 20.712 123.654 21.024C124.166 21.336 124.726 21.492 125.334 21.492ZM134.108 19.56V12H137.036V18.792C137.036 19.264 137.152 19.696 137.384 20.088C137.616 20.472 137.924 20.78 138.308 21.012C138.7 21.236 139.128 21.348 139.592 21.348C140.072 21.348 140.504 21.236 140.888 21.012C141.272 20.78 141.58 20.472 141.812 20.088C142.044 19.696 142.16 19.264 142.16 18.792V12H145.088L145.1 24H142.172L142.16 22.908C141.744 23.34 141.252 23.684 140.684 23.94C140.116 24.188 139.508 24.312 138.86 24.312C137.988 24.312 137.192 24.1 136.472 23.676C135.752 23.244 135.176 22.672 134.744 21.96C134.32 21.24 134.108 20.44 134.108 19.56ZM151.331 24L147.035 7.2H150.059L152.987 18.684L155.915 7.2H158.591L161.519 18.684L164.435 7.2H167.459L163.187 24H159.863L157.247 13.824L154.667 24H151.331ZM168.878 12H171.806V24H168.878V12ZM170.366 10.452C169.934 10.452 169.57 10.312 169.274 10.032C168.978 9.744 168.83 9.384 168.83 8.952C168.83 8.528 168.978 8.172 169.274 7.884C169.57 7.596 169.93 7.452 170.354 7.452C170.778 7.452 171.134 7.596 171.422 7.884C171.718 8.172 171.866 8.528 171.866 8.952C171.866 9.384 171.722 9.744 171.434 10.032C171.146 10.312 170.79 10.452 170.366 10.452ZM185.453 24H182.081L179.345 19.284L177.665 21.288V24H174.737V6H177.665V16.74L181.637 12H185.465L181.349 16.908L185.453 24ZM187.206 12H190.134V24H187.206V12ZM188.694 10.452C188.262 10.452 187.898 10.312 187.602 10.032C187.306 9.744 187.158 9.384 187.158 8.952C187.158 8.528 187.306 8.172 187.602 7.884C187.898 7.596 188.258 7.452 188.682 7.452C189.106 7.452 189.462 7.596 189.75 7.884C190.046 8.172 190.194 8.528 190.194 8.952C190.194 9.384 190.05 9.744 189.762 10.032C189.474 10.312 189.118 10.452 188.694 10.452Z" fill="#4B4E5C"/>
</svg>
