<svg width="141" height="24" viewBox="0 0 141 24" fill="none" xmlns="http://www.w3.org/2000/svg">
<path fill-rule="evenodd" clip-rule="evenodd" d="M15.6484 0C14.5749 0 13.7059 0.908722 13.7059 2.03077C13.7059 3.15134 14.5757 4.06154 15.6477 4.06154H18.472C19.151 4.06154 19.7059 4.64167 19.7059 5.35385C19.7059 6.06628 19.1523 6.64615 18.4716 6.64615H2.94046C1.86643 6.64615 1 7.55465 1 8.67692C1 9.79784 1.87121 10.7077 2.94423 10.7077H14.5915C15.2691 10.7077 15.8235 11.2878 15.8235 12C15.8235 12.7122 15.2688 13.2923 14.586 13.2923H12.1146C11.0439 13.2923 10.1765 14.2019 10.1765 15.3231C10.1765 16.4437 11.0465 17.3538 12.1186 17.3538H17.4096C18.0952 17.3538 18.6471 17.9312 18.6471 18.6462C18.6471 19.3584 18.0924 19.9385 17.4099 19.9385H7.17887C6.10328 19.9385 5.2353 20.8464 5.2353 21.9692C5.2353 23.0894 6.10325 24 7.17386 24H22.1799C23.7366 24 25 22.6764 25 21.0455V2.95454C25 1.32081 23.7354 2.47413e-06 22.1741 2.47413e-06L15.6484 0ZM5.06115 0C3.98793 0 3.11764 0.908835 3.11764 2.03077C3.11764 3.15157 3.98844 4.06154 5.06115 4.06154H9.64473C10.718 4.06154 11.5882 3.1527 11.5882 2.03077C11.5882 0.909974 10.7174 0 9.64473 0H5.06115ZM6.11881 17.3538C7.19048 17.3538 8.05882 16.4445 8.05882 15.3231C8.05882 14.2028 7.19006 13.2923 6.11881 13.2923H3.64588C2.57422 13.2923 1.70588 14.2016 1.70588 15.3231C1.70588 16.4434 2.57465 17.3538 3.64588 17.3538H6.11881Z" fill="#4B4E5C"/>
<path d="M38.5187 19.2632C37.5629 19.2632 36.738 19.1259 36.0441 18.8513C35.3502 18.5767 34.7774 18.195 34.3257 17.7061C33.874 17.2172 33.5401 16.6345 33.3241 15.9581C33.108 15.2817 33 14.5349 33 13.7179V5.05835H36.0638V13.4567C36.0638 14.0193 36.1259 14.4981 36.2503 14.8932C36.3747 15.2884 36.5449 15.6098 36.761 15.8576C36.977 16.1054 37.2388 16.2829 37.5465 16.3901C37.8542 16.4972 38.1914 16.5508 38.558 16.5508C39.3043 16.5508 39.9098 16.3164 40.3746 15.8476C40.8394 15.3788 41.0718 14.5818 41.0718 13.4567V5.05835H44.1356V13.7179C44.1356 14.5349 44.0243 15.285 43.8017 15.9681C43.5791 16.6513 43.2387 17.2373 42.7804 17.7262C42.3222 18.2151 41.7396 18.5935 41.0325 18.8614C40.3255 19.1292 39.4876 19.2632 38.5187 19.2632Z" fill="#4B4E5C"/>
<path d="M47.0815 18.9819V5.05835H56.1942V7.69036H50.1453V10.6037H55.5265V13.2357H50.1453V18.9819H47.0815Z" fill="#4B4E5C"/>
<path d="M65.3459 5.05835C65.8827 6.22367 66.4097 7.43922 66.9269 8.70499C67.444 9.97077 67.9383 11.2165 68.4097 12.442C68.881 13.6676 69.3163 14.843 69.7157 15.9681C70.115 17.0933 70.4652 18.0979 70.7664 18.9819H67.3884C67.1265 18.1782 66.8418 17.3109 66.5341 16.38C66.2264 15.4491 65.9122 14.5215 65.5914 13.5973C65.2706 12.6731 64.9564 11.7891 64.6487 10.9452C64.341 10.1014 64.0628 9.37137 63.814 8.75522C63.5522 9.37137 63.2674 10.1014 62.9597 10.9452C62.652 11.7891 62.3411 12.6731 62.0268 13.5973C61.7126 14.5215 61.4016 15.4491 61.094 16.38C60.7863 17.3109 60.5015 18.1782 60.2396 18.9819H56.9795C57.2675 18.0979 57.6112 17.0933 58.0106 15.9681C58.4099 14.843 58.8452 13.6643 59.3166 12.432C59.7879 11.1997 60.2855 9.95403 60.8092 8.69495C61.3329 7.43587 61.8632 6.22367 62.4 5.05835H65.3459Z" fill="#4B4E5C"/>
<path d="M77.0709 19.1626C76.3246 19.1626 75.5816 19.1391 74.8418 19.0923C74.1021 19.0454 73.3329 18.9349 72.5342 18.7607V5.25911C73.1626 5.13856 73.85 5.04814 74.5963 4.98787C75.3426 4.92759 76.0365 4.89746 76.6781 4.89746C77.5422 4.89746 78.3376 4.96108 79.0643 5.08833C79.791 5.21558 80.4161 5.43323 80.9399 5.74131C81.4636 6.04938 81.8727 6.45457 82.1673 6.95686C82.4619 7.45915 82.6092 8.07865 82.6092 8.81534C82.6092 9.92708 82.0855 10.8044 81.0381 11.4474C81.9022 11.7822 82.4914 12.2376 82.8056 12.8136C83.1198 13.3896 83.277 14.0392 83.277 14.7625C83.277 16.2225 82.7565 17.3208 81.7156 18.0575C80.6747 18.7942 79.1265 19.1626 77.0709 19.1626H77.0709ZM75.5194 12.9141V16.5105C75.742 16.5373 75.9842 16.5573 76.246 16.5707C76.5079 16.5841 76.7959 16.5908 77.1102 16.5908C78.0267 16.5908 78.7664 16.4569 79.3294 16.189C79.8924 15.9211 80.1739 15.4255 80.1739 14.7022C80.1739 14.0593 79.9382 13.6005 79.4669 13.3259C78.9956 13.0513 78.3213 12.9141 77.444 12.9141H75.5194ZM75.5194 10.5231H77.012C77.9547 10.5231 78.629 10.3992 79.0348 10.1514C79.4407 9.90364 79.6437 9.50516 79.6437 8.95599C79.6437 8.39342 79.4342 7.99827 79.0152 7.77057C78.5962 7.54286 77.9809 7.42902 77.1691 7.42902C76.9072 7.42902 76.6257 7.43236 76.3246 7.43906C76.0235 7.44575 75.755 7.4625 75.5194 7.48928L75.5194 10.5231Z" fill="#4B4E5C"/>
<path d="M91.9378 19.2631C89.7251 19.2631 88.0394 18.6336 86.8807 17.3745C85.7219 16.1154 85.1426 14.3273 85.1426 12.01C85.1426 10.8581 85.3193 9.83007 85.6728 8.92594C86.0264 8.02182 86.5108 7.25833 87.1262 6.63548C87.7415 6.01264 88.4747 5.54049 89.3258 5.21902C90.1768 4.89755 91.0999 4.73682 92.0949 4.73682C92.671 4.73682 93.1948 4.78035 93.6661 4.86742C94.1374 4.95448 94.5499 5.05494 94.9034 5.16879C95.2569 5.28264 95.5515 5.39984 95.7872 5.52039C96.0228 5.64094 96.193 5.73471 96.2978 5.80168L95.414 8.33324C94.995 8.10554 94.5073 7.91131 93.9509 7.75057C93.3944 7.58984 92.7627 7.50948 92.0557 7.50948C91.5843 7.50948 91.1228 7.58984 90.6711 7.75057C90.2194 7.91131 89.82 8.16916 89.4731 8.52411C89.1261 8.87906 88.8479 9.33782 88.6384 9.90039C88.4289 10.463 88.3242 11.1461 88.3242 11.9497C88.3242 12.5927 88.3929 13.1921 88.5304 13.748C88.6679 14.3038 88.8904 14.7827 89.1981 15.1845C89.5058 15.5863 89.9084 15.9045 90.406 16.1389C90.9035 16.3733 91.5058 16.4905 92.2128 16.4905C92.6579 16.4905 93.0573 16.4637 93.4108 16.4101C93.7643 16.3565 94.0785 16.2929 94.3535 16.2192C94.6284 16.1456 94.8707 16.0618 95.0801 15.9681C95.2896 15.8743 95.4795 15.7873 95.6497 15.7069L96.4942 18.2184C96.0621 18.4863 95.4533 18.7274 94.6677 18.9417C93.8821 19.156 92.9722 19.2631 91.9378 19.2631V19.2631Z" fill="#4B4E5C"/>
<path d="M107.591 6.54513C107.748 7.09431 107.921 7.7138 108.111 8.40361C108.301 9.09343 108.504 9.80668 108.72 10.5434C108.936 11.2801 109.155 12.0168 109.378 12.7535C109.6 13.4902 109.816 14.1733 110.026 14.8028C110.196 14.1197 110.369 13.3763 110.546 12.5726C110.723 11.769 110.89 10.9385 111.047 10.0813C111.204 9.22402 111.358 8.37013 111.509 7.51958C111.659 6.66903 111.8 5.84862 111.931 5.05835H115.112C114.654 7.38899 114.127 9.75311 113.531 12.1507C112.936 14.5483 112.291 16.8254 111.597 18.9819H108.788C108.33 17.696 107.885 16.3465 107.453 14.9334C107.021 13.5203 106.595 12.1038 106.176 10.684C105.757 12.1038 105.339 13.5203 104.92 14.9334C104.501 16.3465 104.062 17.696 103.604 18.9819H100.795C100.101 16.8254 99.4565 14.5483 98.8608 12.1507C98.265 9.75311 97.738 7.38899 97.2798 5.05835H100.599C100.73 5.84862 100.874 6.66903 101.031 7.51958C101.188 8.37013 101.352 9.22403 101.522 10.0813C101.692 10.9385 101.866 11.769 102.042 12.5726C102.219 13.3763 102.399 14.1197 102.582 14.8028C102.818 14.1465 103.047 13.45 103.27 12.7133C103.492 11.9766 103.708 11.2399 103.918 10.5032C104.127 9.7665 104.321 9.0566 104.497 8.37348C104.674 7.69036 104.834 7.08091 104.978 6.54513H107.591Z" fill="#4B4E5C"/>
<path d="M117.076 5.05835H120.14V18.9819H117.076V5.05835Z" fill="#4B4E5C"/>
<path d="M131.315 18.9819C131.04 18.5265 130.716 18.0342 130.343 17.5052C129.97 16.9761 129.564 16.447 129.125 15.9179C128.687 15.3888 128.232 14.8798 127.761 14.391C127.289 13.9021 126.818 13.4701 126.346 13.095V18.9819H123.283V5.05835H126.346V10.3224C127.145 9.46513 127.947 8.57105 128.752 7.64013C129.558 6.70922 130.307 5.84862 131.001 5.05835H134.634C133.705 6.18349 132.772 7.26844 131.836 8.31321C130.9 9.35797 129.914 10.4094 128.88 11.4676C129.967 12.3918 131.017 13.4902 132.032 14.7626C133.047 16.0351 134.019 17.4415 134.949 18.9819H131.315Z" fill="#4B4E5C"/>
<path d="M136.716 5.05835H139.78V18.9819H136.716V5.05835Z" fill="#4B4E5C"/>
</svg>
