<svg width="156" height="149" viewBox="0 0 156 149" fill="none" xmlns="http://www.w3.org/2000/svg">
<path fill-rule="evenodd" clip-rule="evenodd" d="M95.0872 0.776688C88.161 0.776688 82.5543 6.38108 82.5543 13.3011C82.5543 20.212 88.1664 25.8255 95.0829 25.8255H113.305C117.686 25.8255 121.266 29.4034 121.266 33.7956C121.266 38.1894 117.695 41.7657 113.303 41.7657H13.0961C6.16642 41.7657 0.576263 47.3687 0.576263 54.2902C0.576263 61.2032 6.19729 66.8146 13.1204 66.8146H88.2682C92.6401 66.8146 96.2173 70.3923 96.2173 74.7847C96.2173 79.1769 92.6381 82.7548 88.2329 82.7548H72.2877C65.379 82.7548 59.7827 88.3646 59.7827 95.2792C59.7827 102.19 65.3959 107.804 72.313 107.804H106.451C110.874 107.804 114.435 111.364 114.435 115.774C114.435 120.166 110.856 123.744 106.453 123.744H40.4422C33.5025 123.744 27.9023 129.344 27.9023 136.268C27.9023 143.176 33.5023 148.793 40.4099 148.793H137.228C147.272 148.793 155.424 140.63 155.424 130.571V18.9983C155.424 8.92255 147.265 0.776703 137.191 0.776703L95.0872 0.776688ZM26.7787 0.776688C19.8543 0.776688 14.2393 6.38178 14.2393 13.3011C14.2393 20.2134 19.8576 25.8255 26.7787 25.8255H56.3519C63.2763 25.8255 68.8913 20.2205 68.8913 13.3011C68.8913 6.3888 63.2729 0.776688 56.3519 0.776688H26.7787ZM33.6027 107.804C40.5171 107.804 46.1196 102.195 46.1196 95.2792C46.1196 88.3698 40.5144 82.7548 33.6027 82.7548H17.6474C10.7331 82.7548 5.13058 88.363 5.13058 95.2792C5.13058 102.189 10.7359 107.804 17.6474 107.804H33.6027Z" fill="#78D64B"/>
</svg>
